<svg width="231" height="26" viewBox="0 0 231 26" fill="none" xmlns="http://www.w3.org/2000/svg">
<path d="M19.5544 1.31449H9.49643L1.5388 24.3887H8.34272L9.61476 19.8922H18.874L20.3235 24.3887H27.4233L19.5544 1.31449ZM11.0643 14.8632L14.2888 6.04766H14.5254L17.4836 14.8632H11.0643ZM33.9598 6.6393H39.0184C43.012 6.6393 43.6924 7.37886 43.6924 12.8516C43.6924 18.2651 43.012 19.0639 39.0184 19.0639H33.9598L33.9303 12.8516L33.9598 6.6393ZM27.7476 24.3887H39.6692C48.5143 24.3887 50.2005 22.8208 50.2005 12.8516C50.2005 2.88235 48.5143 1.31449 39.6692 1.31449H27.7476V24.3887ZM57.4866 6.6393H62.5451C66.5387 6.6393 67.2191 7.37886 67.2191 12.8516C67.2191 18.2651 66.5387 19.0639 62.5451 19.0639H57.4866L57.457 12.8516L57.4866 6.6393ZM51.2743 24.3887H63.1959C72.041 24.3887 73.7272 22.8208 73.7272 12.8516C73.7272 2.88235 72.041 1.31449 63.1959 1.31449H51.2743V24.3887ZM88.7047 24.3887H94.917V6.34348H102.046V1.31449H81.6345V6.34348H88.7047V24.3887ZM114.66 5.98849C119.778 5.98849 120.724 7.05346 120.724 12.8516C120.724 18.6497 119.778 19.7147 114.66 19.7147C109.542 19.7147 108.596 18.6497 108.596 12.8516C108.596 7.05346 109.542 5.98849 114.66 5.98849ZM102.087 12.8516C102.087 22.88 104.069 24.7437 114.66 24.7437C125.25 24.7437 127.232 22.88 127.232 12.8516C127.232 2.82319 125.25 0.959505 114.66 0.959505C104.069 0.959505 102.087 2.82319 102.087 12.8516ZM160.582 14.5969H154.074C154.133 18.916 153.216 19.7147 148.276 19.7147C143.306 19.7147 142.389 18.6497 142.389 12.8516C142.389 7.05346 143.306 5.98849 148.276 5.98849C153.216 5.98849 154.133 6.78721 154.074 11.0766H160.582C160.641 2.55695 158.718 0.959505 148.276 0.959505C137.833 0.959505 135.881 2.82319 135.881 12.8516C135.881 22.88 137.833 24.7437 148.276 24.7437C158.718 24.7437 160.641 23.1462 160.582 14.5969ZM178.619 1.31449H168.561L160.604 24.3887H167.407L168.68 19.8922H177.939L179.388 24.3887H186.488L178.619 1.31449ZM170.129 14.8632L173.354 6.04766H173.59L176.548 14.8632H170.129ZM200.598 1.31449H186.812V24.3887H193.025V16.8452H199.119C201.101 16.8452 201.722 17.496 201.722 20.0992C201.722 22.17 201.84 23.4125 202.343 24.3887H209.147V24.1224C208.2 23.0575 207.964 21.0459 207.964 18.7089C207.964 15.8986 206.632 14.9815 204.029 14.3899C207.165 13.6799 208.289 12.3783 208.289 9.62711V8.73964C208.289 2.4682 207.135 1.31449 200.598 1.31449ZM193.025 12.112V6.34348H199C201.603 6.34348 202.077 6.84638 202.077 9.18338C202.077 11.6091 201.603 12.112 199 12.112H193.025ZM216.114 24.3887H222.326V6.34348H229.455V1.31449H209.044V6.34348H216.114V24.3887Z" fill="black"/>
<path d="M19.5544 1.31449L20.3958 1.02757L20.1905 0.425566H19.5544V1.31449ZM9.49643 1.31449V0.425566H8.86269L8.65607 1.02468L9.49643 1.31449ZM1.5388 24.3887L0.69844 24.0989L0.291925 25.2776H1.5388V24.3887ZM8.34272 24.3887V25.2776H9.01506L9.19808 24.6306L8.34272 24.3887ZM9.61476 19.8922V19.0032H8.94242L8.7594 19.6502L9.61476 19.8922ZM18.874 19.8922L19.7201 19.6194L19.5214 19.0032H18.874V19.8922ZM20.3235 24.3887L19.4775 24.6614L19.6761 25.2776H20.3235V24.3887ZM27.4233 24.3887V25.2776H28.6656L28.2646 24.1018L27.4233 24.3887ZM11.0643 14.8632L10.2295 14.5578L9.79262 15.7521H11.0643V14.8632ZM14.2888 6.04766V5.15873H13.6674L13.4539 5.7423L14.2888 6.04766ZM14.5254 6.04766L15.3682 5.76486L15.1648 5.15873H14.5254V6.04766ZM17.4836 14.8632V15.7521H18.7196L18.3264 14.5804L17.4836 14.8632ZM19.5544 0.425566H9.49643V2.20342H19.5544V0.425566ZM8.65607 1.02468L0.69844 24.0989L2.37915 24.6785L10.3368 1.60431L8.65607 1.02468ZM1.5388 25.2776H8.34272V23.4997H1.5388V25.2776ZM9.19808 24.6306L10.4701 20.1341L8.7594 19.6502L7.48736 24.1467L9.19808 24.6306ZM9.61476 20.7811H18.874V19.0032H9.61476V20.7811ZM18.028 20.1649L19.4775 24.6614L21.1696 24.1159L19.7201 19.6194L18.028 20.1649ZM20.3235 25.2776H27.4233V23.4997H20.3235V25.2776ZM28.2646 24.1018L20.3958 1.02757L18.7131 1.60141L26.5819 24.6756L28.2646 24.1018ZM11.8991 15.1685L15.1236 6.35302L13.4539 5.7423L10.2295 14.5578L11.8991 15.1685ZM14.2888 6.93659H14.5254V5.15873H14.2888V6.93659ZM13.6827 6.33046L16.6409 15.146L18.3264 14.5804L15.3682 5.76486L13.6827 6.33046ZM17.4836 13.9743H11.0643V15.7521H17.4836V13.9743ZM33.9598 6.6393V5.75038H33.0751L33.0709 6.63507L33.9598 6.6393ZM33.9598 19.0639L33.0709 19.0681L33.0751 19.9528H33.9598V19.0639ZM33.9303 12.8516L33.0413 12.8473L33.0413 12.8558L33.9303 12.8516ZM27.7476 24.3887H26.8586V25.2776H27.7476V24.3887ZM27.7476 1.31449V0.425566H26.8586V1.31449H27.7476ZM33.9598 7.52823H39.0184V5.75038H33.9598V7.52823ZM39.0184 7.52823C40.0074 7.52823 40.7065 7.57612 41.2199 7.70324C41.7052 7.8234 41.9673 8.00002 42.1488 8.23559C42.3504 8.49737 42.5283 8.93046 42.6447 9.70433C42.7604 10.4741 42.8035 11.4912 42.8035 12.8516H44.5813C44.5813 11.4756 44.5393 10.3479 44.4027 9.43989C44.2668 8.53588 44.0249 7.75796 43.5573 7.15075C43.0694 6.51735 42.4126 6.16703 41.6472 5.9775C40.9098 5.79493 40.0262 5.75038 39.0184 5.75038V7.52823ZM42.8035 12.8516C42.8035 14.1969 42.7605 15.2065 42.6447 15.9734C42.5284 16.7441 42.3505 17.1812 42.1465 17.4483C41.7769 17.9323 41.0718 18.1749 39.0184 18.1749V19.9528C40.9586 19.9528 42.5905 19.7961 43.5595 18.5273C44.0248 17.918 44.2666 17.1404 44.4027 16.2387C44.5393 15.3334 44.5813 14.2131 44.5813 12.8516H42.8035ZM39.0184 18.1749H33.9598V19.9528H39.0184V18.1749ZM34.8488 19.0596L34.8192 12.8474L33.0413 12.8558L33.0709 19.0681L34.8488 19.0596ZM34.8192 12.8558L34.8488 6.64354L33.0709 6.63507L33.0413 12.8474L34.8192 12.8558ZM27.7476 25.2776H39.6692V23.4997H27.7476V25.2776ZM39.6692 25.2776C41.8925 25.2776 43.735 25.1805 45.2339 24.8568C46.7473 24.53 47.9755 23.9585 48.902 22.9648C49.822 21.9779 50.3583 20.6665 50.6719 19.027C50.9846 17.3927 51.0894 15.357 51.0894 12.8516H49.3116C49.3116 15.3308 49.2057 17.2295 48.9257 18.693C48.6468 20.1514 48.2087 21.1012 47.6016 21.7524C47.0009 22.3968 46.149 22.8404 44.8586 23.119C43.5537 23.4008 41.8685 23.4997 39.6692 23.4997V25.2776ZM51.0894 12.8516C51.0894 10.3462 50.9846 8.31041 50.6719 6.67613C50.3583 5.03665 49.822 3.72528 48.902 2.73841C47.9755 1.74463 46.7473 1.17318 45.2339 0.846344C43.735 0.522641 41.8925 0.425566 39.6692 0.425566V2.20342C41.8685 2.20342 43.5537 2.30233 44.8586 2.58414C46.149 2.86281 47.0009 3.30641 47.6016 3.95074C48.2087 4.60199 48.6468 5.55181 48.9257 7.01015C49.2057 8.47369 49.3116 10.3724 49.3116 12.8516H51.0894ZM39.6692 0.425566H27.7476V2.20342H39.6692V0.425566ZM26.8586 1.31449V24.3887H28.6365V1.31449H26.8586ZM57.4865 6.6393V5.75038H56.6018L56.5976 6.63507L57.4865 6.6393ZM57.4865 19.0639L56.5976 19.0681L56.6018 19.9528H57.4865V19.0639ZM57.457 12.8516L56.568 12.8473L56.5681 12.8558L57.457 12.8516ZM51.2743 24.3887H50.3853V25.2776H51.2743V24.3887ZM51.2743 1.31449V0.425566H50.3853V1.31449H51.2743ZM57.4865 7.52823H62.5451V5.75038H57.4865V7.52823ZM62.5451 7.52823C63.5341 7.52823 64.2332 7.57612 64.7466 7.70324C65.2319 7.8234 65.494 8.00002 65.6755 8.23559C65.8771 8.49737 66.055 8.93046 66.1714 9.70433C66.2872 10.4741 66.3302 11.4912 66.3302 12.8516H68.108C68.108 11.4756 68.066 10.3479 67.9295 9.43989C67.7935 8.53588 67.5517 7.75796 67.084 7.15075C66.5961 6.51735 65.9394 6.16703 65.1739 5.9775C64.4365 5.79493 63.5529 5.75038 62.5451 5.75038V7.52823ZM66.3302 12.8516C66.3302 14.1969 66.2872 15.2065 66.1714 15.9734C66.0551 16.7441 65.8772 17.1812 65.6733 17.4483C65.3036 17.9323 64.5985 18.1749 62.5451 18.1749V19.9528C64.4853 19.9528 66.1172 19.7961 67.0862 18.5273C67.5516 17.918 67.7933 17.1404 67.9294 16.2387C68.066 15.3334 68.108 14.2131 68.108 12.8516H66.3302ZM62.5451 18.1749H57.4865V19.9528H62.5451V18.1749ZM58.3755 19.0596L58.3459 12.8474L56.5681 12.8558L56.5976 19.0681L58.3755 19.0596ZM58.3459 12.8558L58.3755 6.64354L56.5976 6.63507L56.5681 12.8474L58.3459 12.8558ZM51.2743 25.2776H63.1959V23.4997H51.2743V25.2776ZM63.1959 25.2776C65.4192 25.2776 67.2617 25.1805 68.7606 24.8568C70.274 24.53 71.5022 23.9585 72.4287 22.9648C73.3487 21.9779 73.885 20.6665 74.1986 19.027C74.5113 17.3927 74.6161 15.357 74.6161 12.8516H72.8383C72.8383 15.3308 72.7324 17.2295 72.4525 18.693C72.1735 20.1514 71.7354 21.1012 71.1283 21.7524C70.5276 22.3968 69.6758 22.8404 68.3853 23.119C67.0804 23.4008 65.3952 23.4997 63.1959 23.4997V25.2776ZM74.6161 12.8516C74.6161 10.3462 74.5113 8.31041 74.1986 6.67613C73.885 5.03665 73.3487 3.72528 72.4287 2.73841C71.5022 1.74463 70.274 1.17318 68.7606 0.846344C67.2617 0.522641 65.4192 0.425566 63.1959 0.425566V2.20342C65.3952 2.20342 67.0804 2.30233 68.3853 2.58414C69.6758 2.86281 70.5276 3.30641 71.1283 3.95074C71.7354 4.60199 72.1735 5.55181 72.4525 7.01015C72.7324 8.47369 72.8383 10.3724 72.8383 12.8516H74.6161ZM63.1959 0.425566H51.2743V2.20342H63.1959V0.425566ZM50.3853 1.31449V24.3887H52.1632V1.31449H50.3853ZM88.7047 24.3887H87.8158V25.2776H88.7047V24.3887ZM94.917 24.3887V25.2776H95.8059V24.3887H94.917ZM94.917 6.34348V5.45455H94.028V6.34348H94.917ZM102.046 6.34348V7.23241H102.935V6.34348H102.046ZM102.046 1.31449H102.935V0.425566H102.046V1.31449ZM81.6345 1.31449V0.425566H80.7456V1.31449H81.6345ZM81.6345 6.34348H80.7456V7.23241H81.6345V6.34348ZM88.7047 6.34348H89.5936V5.45455H88.7047V6.34348ZM88.7047 25.2776H94.917V23.4997H88.7047V25.2776ZM95.8059 24.3887V6.34348H94.028V24.3887H95.8059ZM94.917 7.23241H102.046V5.45455H94.917V7.23241ZM102.935 6.34348V1.31449H101.157V6.34348H102.935ZM102.046 0.425566H81.6345V2.20342H102.046V0.425566ZM80.7456 1.31449V6.34348H82.5234V1.31449H80.7456ZM81.6345 7.23241H88.7047V5.45455H81.6345V7.23241ZM87.8158 6.34348V24.3887H89.5936V6.34348H87.8158ZM114.66 6.87742C115.923 6.87742 116.857 6.94462 117.563 7.11073C118.251 7.27288 118.664 7.516 118.945 7.83461C119.236 8.16363 119.469 8.66515 119.622 9.49429C119.776 10.3272 119.835 11.4149 119.835 12.8516H121.613C121.613 11.3892 121.554 10.1695 121.371 9.17199C121.186 8.17073 120.863 7.31886 120.277 6.65687C119.683 5.98447 118.899 5.59897 117.97 5.38024C117.059 5.16549 115.956 5.09957 114.66 5.09957V6.87742ZM119.835 12.8516C119.835 14.2883 119.776 15.376 119.622 16.2089C119.469 17.038 119.236 17.5395 118.945 17.8686C118.664 18.1872 118.251 18.4303 117.563 18.5924C116.857 18.7585 115.923 18.8257 114.66 18.8257V20.6036C115.956 20.6036 117.059 20.5377 117.97 20.3229C118.899 20.1042 119.683 19.7187 120.277 19.0463C120.863 18.3843 121.186 17.5324 121.371 16.5312C121.554 15.5336 121.613 14.3139 121.613 12.8516H119.835ZM114.66 18.8257C113.397 18.8257 112.462 18.7585 111.757 18.5924C111.069 18.4303 110.656 18.1872 110.374 17.8686C110.084 17.5395 109.85 17.038 109.698 16.2089C109.544 15.376 109.484 14.2883 109.484 12.8516H107.707C107.707 14.3139 107.765 15.5336 107.949 16.5312C108.134 17.5324 108.457 18.3843 109.043 19.0463C109.637 19.7187 110.421 20.1042 111.349 20.3229C112.261 20.5377 113.364 20.6036 114.66 20.6036V18.8257ZM109.484 12.8516C109.484 11.4149 109.544 10.3272 109.698 9.49429C109.85 8.66515 110.084 8.16363 110.374 7.83461C110.656 7.516 111.069 7.27288 111.757 7.11073C112.462 6.94462 113.397 6.87742 114.66 6.87742V5.09957C113.364 5.09957 112.261 5.16549 111.349 5.38024C110.421 5.59897 109.637 5.98447 109.043 6.65687C108.457 7.31886 108.134 8.17073 107.949 9.17199C107.765 10.1695 107.707 11.3892 107.707 12.8516H109.484ZM101.199 12.8516C101.199 15.3748 101.322 17.4504 101.695 19.1328C102.07 20.8281 102.713 22.1845 103.792 23.2043C104.866 24.2197 106.285 24.8176 108.055 25.1678C109.818 25.5166 111.998 25.6326 114.66 25.6326V23.8547C112.026 23.8547 109.987 23.7378 108.4 23.4237C106.82 23.1111 105.758 22.6163 105.013 21.9122C104.273 21.2125 103.757 20.2227 103.43 18.7481C103.101 17.2606 102.976 15.3425 102.976 12.8516H101.199ZM114.66 25.6326C117.322 25.6326 119.502 25.5166 121.265 25.1678C123.035 24.8176 124.454 24.2197 125.528 23.2043C126.607 22.1845 127.249 20.8281 127.625 19.1328C127.998 17.4504 128.121 15.3748 128.121 12.8516H126.343C126.343 15.3425 126.219 17.2606 125.889 18.7481C125.563 20.2227 125.047 21.2125 124.307 21.9122C123.562 22.6163 122.5 23.1111 120.92 23.4237C119.332 23.7378 117.293 23.8547 114.66 23.8547V25.6326ZM128.121 12.8516C128.121 10.3283 127.998 8.25279 127.625 6.57036C127.249 4.87502 126.607 3.51864 125.528 2.49885C124.454 1.48343 123.035 0.885547 121.265 0.535376C119.502 0.186581 117.322 0.0705783 114.66 0.0705783V1.84843C117.293 1.84843 119.332 1.96539 120.92 2.27942C122.5 2.59208 123.562 3.08689 124.307 3.79094C125.047 4.49062 125.563 5.48048 125.889 6.95507C126.219 8.44257 126.343 10.3606 126.343 12.8516H128.121ZM114.66 0.0705783C111.998 0.0705783 109.818 0.186581 108.055 0.535376C106.285 0.885547 104.866 1.48343 103.792 2.49885C102.713 3.51864 102.07 4.87503 101.695 6.57036C101.322 8.25279 101.199 10.3283 101.199 12.8516H102.976C102.976 10.3606 103.101 8.44257 103.43 6.95507C103.757 5.48048 104.273 4.49062 105.013 3.79094C105.758 3.08689 106.82 2.59208 108.4 2.27942C109.987 1.96539 112.026 1.84843 114.66 1.84843V0.0705783ZM160.582 14.5969L161.471 14.5908L161.465 13.708H160.582V14.5969ZM154.074 14.5969V13.708H153.173L153.185 14.6091L154.074 14.5969ZM154.074 11.0766L153.185 11.0644L153.173 11.9656H154.074V11.0766ZM160.582 11.0766V11.9656H161.465L161.471 11.0828L160.582 11.0766ZM160.582 13.708H154.074V15.4859H160.582V13.708ZM153.185 14.6091C153.2 15.6713 153.152 16.4454 153.021 17.0219C152.894 17.5806 152.702 17.8968 152.462 18.1085C152.21 18.3306 151.81 18.521 151.115 18.6479C150.416 18.7754 149.498 18.8257 148.276 18.8257V20.6036C149.524 20.6036 150.573 20.5541 151.434 20.3969C152.298 20.2391 153.05 19.9598 153.637 19.4424C154.236 18.9146 154.572 18.2212 154.755 17.4154C154.933 16.6274 154.978 15.6821 154.963 14.5848L153.185 14.6091ZM148.276 18.8257C145.748 18.8257 144.696 18.523 144.143 17.8785C143.861 17.5498 143.634 17.0463 143.485 16.2136C143.336 15.3784 143.278 14.2888 143.278 12.8516H141.5C141.5 14.3135 141.557 15.5312 141.735 16.5265C141.913 17.5241 142.226 18.3741 142.794 19.0363C143.942 20.3739 145.834 20.6036 148.276 20.6036V18.8257ZM143.278 12.8516C143.278 11.4144 143.336 10.3248 143.485 9.48959C143.634 8.65683 143.861 8.15339 144.143 7.82466C144.696 7.18015 145.748 6.87742 148.276 6.87742V5.09957C145.834 5.09957 143.942 5.32931 142.794 6.66682C142.226 7.32909 141.913 8.17904 141.735 9.17669C141.557 10.1719 141.5 11.3897 141.5 12.8516H143.278ZM148.276 6.87742C149.498 6.87742 150.417 6.92777 151.115 7.05488C151.811 7.18151 152.211 7.37131 152.464 7.59247C152.704 7.80283 152.895 8.11627 153.021 8.66992C153.152 9.24169 153.2 10.0098 153.185 11.0644L154.963 11.0889C154.978 9.99878 154.933 9.05851 154.754 8.27412C154.571 7.4716 154.235 6.78109 153.636 6.2556C153.049 5.7409 152.297 5.46293 151.433 5.30575C150.572 5.14905 149.524 5.09957 148.276 5.09957V6.87742ZM154.074 11.9656H160.582V10.1877H154.074V11.9656ZM161.471 11.0828C161.5 6.85966 161.073 3.8994 158.932 2.13692C157.876 1.26737 156.488 0.762265 154.763 0.466115C153.038 0.170035 150.899 0.0705783 148.276 0.0705783V1.84843C150.874 1.84843 152.891 1.94866 154.462 2.21834C156.033 2.48795 157.08 2.91469 157.802 3.50946C159.219 4.67563 159.723 6.77394 159.693 11.0705L161.471 11.0828ZM148.276 0.0705783C145.651 0.0705783 143.499 0.186571 141.759 0.535848C140.011 0.886663 138.608 1.48595 137.547 2.50324C136.483 3.52381 135.85 4.87976 135.481 6.57302C135.113 8.25417 134.992 10.3286 134.992 12.8516H136.77C136.77 10.3603 136.892 8.44119 137.218 6.95241C137.54 5.47575 138.049 4.48545 138.778 3.78655C139.51 3.08437 140.554 2.59096 142.109 2.27895C143.671 1.9654 145.679 1.84843 148.276 1.84843V0.0705783ZM134.992 12.8516C134.992 15.3745 135.113 17.449 135.481 19.1301C135.85 20.8234 136.483 22.1793 137.547 23.1999C138.608 24.2172 140.011 24.8165 141.759 25.1673C143.499 25.5166 145.651 25.6326 148.276 25.6326V23.8547C145.679 23.8547 143.671 23.7378 142.109 23.4242C140.554 23.1122 139.51 22.6188 138.778 21.9166C138.049 21.2177 137.54 20.2274 137.218 18.7508C136.892 17.262 136.77 15.3428 136.77 12.8516H134.992ZM148.276 25.6326C150.898 25.6326 153.038 25.5331 154.763 25.2365C156.488 24.9399 157.877 24.4337 158.933 23.5618C161.073 21.7955 161.5 18.8281 161.471 14.5908L159.693 14.6031C159.723 18.915 159.218 21.021 157.801 22.1907C157.079 22.7869 156.032 23.2144 154.462 23.4844C152.891 23.7545 150.874 23.8547 148.276 23.8547V25.6326ZM178.619 1.31449L179.461 1.02757L179.255 0.425566H178.619V1.31449ZM168.561 1.31449V0.425566H167.927L167.721 1.02468L168.561 1.31449ZM160.604 24.3887L159.763 24.0989L159.357 25.2776H160.604V24.3887ZM167.407 24.3887V25.2776H168.08L168.263 24.6306L167.407 24.3887ZM168.68 19.8922V19.0032H168.007L167.824 19.6502L168.68 19.8922ZM177.939 19.8922L178.785 19.6194L178.586 19.0032H177.939V19.8922ZM179.388 24.3887L178.542 24.6614L178.741 25.2776H179.388V24.3887ZM186.488 24.3887V25.2776H187.73L187.329 24.1018L186.488 24.3887ZM170.129 14.8632L169.294 14.5578L168.857 15.7521H170.129V14.8632ZM173.354 6.04766V5.15873H172.732L172.519 5.7423L173.354 6.04766ZM173.59 6.04766L174.433 5.76486L174.23 5.15873H173.59V6.04766ZM176.548 14.8632V15.7521H177.784L177.391 14.5804L176.548 14.8632ZM178.619 0.425566H168.561V2.20342H178.619V0.425566ZM167.721 1.02468L159.763 24.0989L161.444 24.6785L169.402 1.60431L167.721 1.02468ZM160.604 25.2776H167.407V23.4997H160.604V25.2776ZM168.263 24.6306L169.535 20.1341L167.824 19.6502L166.552 24.1467L168.263 24.6306ZM168.68 20.7811H177.939V19.0032H168.68V20.7811ZM177.093 20.1649L178.542 24.6614L180.234 24.1159L178.785 19.6194L177.093 20.1649ZM179.388 25.2776H186.488V23.4997H179.388V25.2776ZM187.329 24.1018L179.461 1.02757L177.778 1.60141L185.647 24.6756L187.329 24.1018ZM170.964 15.1685L174.188 6.35302L172.519 5.7423L169.294 14.5578L170.964 15.1685ZM173.354 6.93659H173.59V5.15873H173.354V6.93659ZM172.747 6.33046L175.706 15.146L177.391 14.5804L174.433 5.76486L172.747 6.33046ZM176.548 13.9743H170.129V15.7521H176.548V13.9743ZM186.812 1.31449V0.425566H185.923V1.31449H186.812ZM186.812 24.3887H185.923V25.2776H186.812V24.3887ZM193.025 24.3887V25.2776H193.914V24.3887H193.025ZM193.025 16.8452V15.9563H192.136V16.8452H193.025ZM202.343 24.3887L201.553 24.7958L201.801 25.2776H202.343V24.3887ZM209.147 24.3887V25.2776H210.036V24.3887H209.147ZM209.147 24.1224H210.036V23.7845L209.811 23.5319L209.147 24.1224ZM204.029 14.3899L203.833 13.5229L203.832 15.2567L204.029 14.3899ZM193.025 12.112H192.136V13.001H193.025V12.112ZM193.025 6.34348V5.45455H192.136V6.34348H193.025ZM200.598 0.425566H186.812V2.20342H200.598V0.425566ZM185.923 1.31449V24.3887H187.701V1.31449H185.923ZM186.812 25.2776H193.025V23.4997H186.812V25.2776ZM193.914 24.3887V16.8452H192.136V24.3887H193.914ZM193.025 17.7341H199.119V15.9563H193.025V17.7341ZM199.119 17.7341C200.067 17.7341 200.347 17.9034 200.478 18.062C200.66 18.2822 200.833 18.7955 200.833 20.0992H202.611C202.611 18.7997 202.473 17.686 201.849 16.93C201.174 16.1124 200.153 15.9563 199.119 15.9563V17.7341ZM200.833 20.0992C200.833 22.1562 200.939 23.6047 201.553 24.7958L203.133 23.9816C202.741 23.2202 202.611 22.1838 202.611 20.0992H200.833ZM202.343 25.2776H209.147V23.4997H202.343V25.2776ZM210.036 24.3887V24.1224H208.258V24.3887H210.036ZM209.811 23.5319C209.491 23.1718 209.238 22.5841 209.073 21.7257C208.911 20.8782 208.853 19.8555 208.853 18.7089H207.075C207.075 19.8992 207.134 21.0508 207.327 22.0596C207.518 23.0575 207.856 24.0081 208.483 24.713L209.811 23.5319ZM208.853 18.7089C208.853 17.1625 208.483 15.9654 207.599 15.087C206.755 14.247 205.56 13.8262 204.226 13.523L203.832 15.2567C205.102 15.5452 205.874 15.8787 206.346 16.3477C206.779 16.7784 207.075 17.445 207.075 18.7089H208.853ZM204.226 15.2568C205.862 14.8863 207.144 14.3279 208 13.3641C208.874 12.3798 209.178 11.1167 209.178 9.62711H207.4C207.4 10.8887 207.142 11.652 206.67 12.1838C206.18 12.7361 205.332 13.1834 203.833 13.5229L204.226 15.2568ZM209.178 9.62711V8.73965H207.4V9.62711H209.178ZM209.178 8.73965C209.178 7.15776 209.107 5.8335 208.876 4.749C208.643 3.6529 208.235 2.73639 207.514 2.03718C206.796 1.34061 205.857 0.946848 204.732 0.721193C203.616 0.497129 202.246 0.425566 200.598 0.425566V2.20342C202.218 2.20342 203.444 2.27607 204.383 2.46431C205.313 2.65096 205.889 2.93758 206.276 3.31337C206.661 3.68652 206.949 4.23433 207.137 5.1184C207.327 6.01406 207.4 7.18581 207.4 8.73965H209.178ZM193.914 12.112V6.34348H192.136V12.112H193.914ZM193.025 7.23241H199V5.45455H193.025V7.23241ZM199 7.23241C199.634 7.23241 200.08 7.26404 200.402 7.32959C200.717 7.39383 200.845 7.47762 200.905 7.53421C200.96 7.58576 201.036 7.68713 201.095 7.94994C201.158 8.22661 201.188 8.61609 201.188 9.18338H202.966C202.966 8.58217 202.937 8.03241 202.829 7.5575C202.719 7.06875 202.513 6.6062 202.124 6.2399C201.74 5.87864 201.262 5.69064 200.757 5.58756C200.257 5.48578 199.668 5.45455 199 5.45455V7.23241ZM201.188 9.18338C201.188 9.77376 201.158 10.1822 201.094 10.4741C201.033 10.7538 200.954 10.8634 200.897 10.9182C200.837 10.9762 200.711 11.0604 200.399 11.1251C200.079 11.1914 199.634 11.2231 199 11.2231V13.001C199.668 13.001 200.258 12.9698 200.76 12.866C201.268 12.7606 201.749 12.5675 202.133 12.1965C202.52 11.8224 202.722 11.3514 202.83 10.8546C202.937 10.3699 202.966 9.80587 202.966 9.18338H201.188ZM199 11.2231H193.025V13.001H199V11.2231ZM216.114 24.3887H215.225V25.2776H216.114V24.3887ZM222.326 24.3887V25.2776H223.215V24.3887H222.326ZM222.326 6.34348V5.45455H221.437V6.34348H222.326ZM229.455 6.34348V7.23241H230.344V6.34348H229.455ZM229.455 1.31449H230.344V0.425566H229.455V1.31449ZM209.044 1.31449V0.425566H208.155V1.31449H209.044ZM209.044 6.34348H208.155V7.23241H209.044V6.34348ZM216.114 6.34348H217.003V5.45455H216.114V6.34348ZM216.114 25.2776H222.326V23.4997H216.114V25.2776ZM223.215 24.3887V6.34348H221.437V24.3887H223.215ZM222.326 7.23241H229.455V5.45455H222.326V7.23241ZM230.344 6.34348V1.31449H228.567V6.34348H230.344ZM229.455 0.425566H209.044V2.20342H229.455V0.425566ZM208.155 1.31449V6.34348H209.933V1.31449H208.155ZM209.044 7.23241H216.114V5.45455H209.044V7.23241ZM215.225 6.34348V24.3887H217.003V6.34348H215.225Z" fill="white"/>
</svg>
